<svg width="109" height="61" viewBox="0 0 109 61" fill="none" xmlns="http://www.w3.org/2000/svg">
<path d="M77.9698 60.7342C76.0422 60.4931 73.7532 60.3729 71.7056 59.168C69.658 57.9631 67.369 57.1203 65.3212 55.5539C63.0322 53.7474 61.7071 51.4585 60.6232 48.9284C60.1417 47.8444 59.7796 46.7605 59.1779 45.7966C57.6117 42.7851 53.8774 42.5439 51.9498 45.3151C51.7087 45.6764 51.4684 46.1588 51.1062 46.6402C49.4198 49.6518 46.7696 51.5794 44.1195 53.627C40.9877 55.916 37.615 57.8435 33.6396 58.5661C29.7844 59.2887 25.9301 59.1686 22.0749 57.8435C19.3045 56.8797 16.7744 55.3134 14.4856 53.748C12.0766 52.1818 10.0288 49.8928 8.7037 47.2435C6.53583 43.1481 5.33079 38.8115 3.88568 34.5949C3.16305 32.3059 2.44041 30.0172 1.23554 27.9694C0.995223 27.0047 0.754064 26.2821 0.633904 25.6795C0.272586 24.3544 0.392745 23.6318 1.5977 22.9091C2.44134 22.4276 2.80265 21.8252 3.04297 20.9816C4.60922 15.561 6.77705 10.2605 9.06602 4.96025C10.271 2.18986 12.3187 1.10506 14.9688 0.503403C15.9326 0.262245 17.0166 0.142084 17.9804 0.142084C20.6305 -0.0990745 24.726 3.03336 25.0873 5.56262C25.2075 6.52641 24.3647 7.85159 23.4009 8.333C22.5573 8.81448 21.7145 8.57416 21.112 7.85153C20.3893 7.12889 19.6667 6.52641 18.9441 5.8038C18.2215 5.20132 17.4988 4.59884 16.6551 4.11738C14.9687 3.39475 13.8847 3.63591 12.6799 5.08118C11.3548 6.76759 10.6322 8.69522 10.0298 10.7428C9.06596 13.5132 7.74078 16.1634 6.65685 18.9338C6.53669 19.1749 6.41569 19.4152 6.29553 19.6564C5.33173 21.7041 5.57289 21.9454 7.86178 21.9454C13.6437 21.9454 19.3054 22.9092 24.9672 24.2344C27.9788 24.957 30.9903 25.1981 33.8816 26.0409C37.3745 27.0047 40.5072 28.4499 43.6387 30.0161C48.2164 32.184 52.9144 33.5091 57.9738 33.7502C60.5039 33.8704 62.7918 33.0276 65.2019 32.3049C68.2134 31.3411 71.2249 30.1371 74.1162 29.0523C78.3328 27.486 82.7894 27.0045 87.2462 26.5222C89.7764 26.281 92.3056 25.6785 94.9558 25.3172C97.1236 25.076 99.2923 25.4374 101.46 24.8357C102.304 24.5946 102.665 24.4744 102.424 23.5106C101.822 19.4152 100.979 15.4397 99.6536 11.4645C99.2923 10.2596 98.5697 9.41679 97.7261 8.57324C96.7623 7.60944 95.4371 7.8506 94.2331 8.45308C92.908 9.05556 91.703 9.89835 90.8602 10.9832C90.4989 11.4647 90.1376 11.947 89.6553 12.3083C88.8116 13.0309 88.089 12.9108 87.3663 12.0671C87.005 11.5857 86.6436 10.9832 86.4025 10.3807C85.8 9.05562 86.0412 8.33301 87.2461 7.61035C88.3301 7.00787 89.414 6.52639 90.619 6.16507C91.703 5.80375 92.7869 5.44244 93.8717 4.96012C95.7993 3.99632 98.9311 5.08028 100.979 7.24909C103.388 9.89923 103.749 13.1519 104.472 16.4039C104.833 18.2105 104.833 20.138 105.315 21.9455C105.556 22.9093 105.797 23.3908 106.882 23.632C108.568 23.9933 109.049 24.9571 108.448 26.5232C107.123 30.2573 106.882 34.3528 104.834 37.8468C104.472 38.5694 104.352 39.5332 103.99 40.2558C101.581 46.2788 98.0873 51.4582 92.9077 55.4337C89.2927 58.4452 82.9077 60.6139 77.9694 60.7342L77.9698 60.7342ZM27.7376 37.4853C28.4602 37.3651 28.9425 37.0038 28.9425 36.1602C27.8577 36.1602 28.4602 37.3643 27.7376 37.4853V39.2918C27.9779 38.6894 28.219 38.0869 27.7376 37.4853ZM35.326 33.389C35.6873 33.389 36.0486 33.5091 36.4099 33.5091C36.7712 33.5091 37.2535 33.6293 37.1325 33.0276C37.1325 32.4252 36.6511 32.7865 36.4099 32.7865C35.8083 32.6663 35.6873 33.1486 35.326 33.389C35.2058 32.6663 35.9284 32.184 36.0486 31.4614C36.0486 31.2202 36.0486 30.9799 35.9284 30.8589C35.5671 30.7388 35.447 30.8589 35.2058 31.1001C34.7235 32.0639 35.2058 32.6662 35.326 33.389ZM14.2453 33.0276C14.0041 33.1478 13.884 33.1478 13.6428 33.2688C13.884 31.9437 14.0041 30.7387 14.2453 28.9322C12.8 30.2573 12.1975 31.5823 12.1975 32.9074C12.1975 34.714 11.3539 36.1601 10.7523 37.7254C10.6321 37.3641 10.7523 37.0028 10.2708 36.8818C9.90947 36.8818 9.66831 37.1229 9.78931 37.4843C9.90946 38.0867 9.54815 38.6892 10.0305 39.2908C10.6329 38.9295 10.0305 37.9657 10.7531 37.7246C10.7531 38.3271 10.3918 38.9295 10.9943 39.7723C11.7169 37.2422 12.3194 35.0743 13.6444 33.1467C13.7646 34.2307 13.7646 35.3146 13.8856 36.3994C14.1267 37.7245 13.5242 38.6884 12.9218 39.7723C12.1991 40.8563 12.0781 40.8563 12.8016 42.1813C13.5242 40.2537 14.3679 38.4472 14.8493 36.6397C15.0905 35.6759 14.2469 36.3985 13.8855 36.3985C14.2469 35.6759 14.6082 34.8323 14.8493 34.1095C14.9695 33.7482 15.0905 33.2659 14.488 33.1458C14.2469 32.5433 14.9695 31.9408 14.7292 31.3392C14.3662 31.8232 14.0049 32.3047 14.2452 33.0273L14.2453 33.0276ZM17.0165 31.1001C16.7754 32.305 15.2099 33.1478 15.6914 34.9552C16.293 33.51 17.6181 32.6663 17.0165 31.1001C16.7754 30.0161 18.4618 29.6548 17.8602 28.4499C16.535 28.5701 16.1737 29.6549 15.9326 30.4977C15.5704 31.8236 16.6544 31.1001 17.0165 31.1001ZM82.6678 34.7141C82.0653 34.594 82.0653 33.8705 81.704 33.389C81.4628 33.8705 81.2225 34.2326 81.2225 34.5939C81.1023 35.1964 80.3789 36.1602 81.1023 36.5215C82.0661 37.003 81.946 35.6779 82.3073 35.1964C82.4266 35.0754 82.5468 34.8351 82.6678 34.7141C82.7879 33.8705 82.9089 33.0277 82.6678 32.3051C82.5468 33.1487 82.3065 33.8714 82.6678 34.7141ZM31.8332 50.3743C32.1945 49.2903 33.2785 48.3265 32.9172 47.0013C34.7238 45.6762 36.2901 43.9898 36.6513 41.4597H35.9286C34.6035 42.5437 34.6035 42.5437 34.1221 40.9782C34.1221 40.7371 34.0019 40.6169 34.0019 40.3758C35.8085 40.3758 36.2909 39.412 35.5681 37.1231C35.5681 38.4482 34.8455 39.4121 34.1229 40.3758C33.4002 40.7371 33.5204 41.7009 32.7978 42.1823C33.0389 38.8094 33.4002 35.3156 33.7616 31.5815C32.3163 32.5453 32.3163 33.6293 32.4364 34.8342C32.6776 36.7618 31.834 40.2547 30.6299 41.7009C31.4735 40.2556 30.6299 38.9305 30.2685 37.4844C28.9434 40.8573 27.6184 44.23 26.2933 47.844C27.4983 47.6028 28.0999 47.1214 28.2209 46.0374C28.2209 45.1938 28.7024 44.5922 29.7872 44.9535C29.3057 46.1584 28.462 50.1329 28.5822 51.0968C30.8712 50.7354 31.1123 48.9289 31.3526 47.1216L31.2324 47.2417C32.3164 46.6392 32.4374 45.4351 32.9188 44.4713C33.039 44.11 33.16 43.7487 33.6415 43.9898C34.0028 44.231 33.8826 44.5923 33.7616 44.9536C33.5205 45.6763 32.7978 46.1586 32.918 47.0014C31.4719 47.724 31.5921 49.0491 31.8332 50.3743C31.7131 51.5792 30.5081 52.422 30.8694 53.8672C31.8332 53.5059 31.8332 52.301 32.5558 52.0606C32.5558 52.3018 32.4357 52.6631 32.4357 52.9043C32.4357 54.4705 32.5558 54.5907 34.0019 54.2294C36.1698 53.7479 37.9771 52.7841 39.9047 51.6993C40.266 51.4581 40.6274 51.338 40.5072 50.8556C40.266 49.5305 41.5912 47.9644 40.266 46.7602C40.1459 46.64 40.6274 46.2787 40.1459 46.1577C38.2183 47.9643 38.3393 50.9757 36.0504 53.0244C35.5689 50.9767 37.2554 48.929 35.0866 47.7239C34.7253 47.9651 34.4841 48.4466 34.364 48.9289C34.1228 49.5313 33.159 50.3741 34.7253 50.7354C34.9665 50.8556 34.4841 52.0606 34.364 51.9404C33.4002 50.4951 33.159 52.0606 32.5574 52.3017C32.3163 51.9404 32.5574 51.4581 32.5574 50.9766C32.4356 50.4943 32.3147 50.2541 31.8332 50.3743ZM22.6778 53.3858C23.4004 53.5059 24.244 53.8673 24.9667 53.8673C25.6895 53.8673 26.2918 53.1446 26.7733 54.2286C26.8935 54.3487 27.2548 54.1084 27.3758 53.8673C27.4959 53.1446 27.3758 52.422 26.8943 52.0607C26.2918 51.5792 26.0507 50.8557 25.8103 50.1331C24.6054 50.7356 25.5692 52.0607 24.6054 52.6632C24.2441 52.5431 23.8828 52.3019 23.5214 52.1818C23.6416 51.5793 23.8828 50.9768 23.8828 50.2542C23.8828 49.5316 24.1239 48.5678 23.1601 48.2065C23.7626 47.8451 24.4852 47.3628 24.7264 46.7612C24.8465 46.52 24.6062 46.0385 24.6062 45.6772C24.6062 45.3159 24.9675 45.3159 25.2087 45.4361C25.4498 45.5562 25.4499 46.2797 25.9313 45.7974C26.2926 45.5562 26.4128 45.0747 26.2926 44.5924C26.1725 44.111 25.6902 44.4723 25.449 44.2311C25.0877 43.99 24.7264 44.5924 24.2441 44.2311C24.6054 42.6649 25.328 41.0993 25.2078 39.6534C25.0877 37.967 26.4128 36.883 26.0515 35.1965C25.6902 33.7513 26.533 32.185 25.8103 30.4986C25.2079 31.3422 25.0877 32.185 24.9667 33.1487C24.8465 35.1964 24.4852 37.2442 24.0029 39.292C23.4004 41.8221 22.1963 44.3514 22.4366 47.1215C22.4366 47.4828 22.1955 47.724 22.0753 48.0853C21.3527 49.5306 21.9552 50.9766 23.5206 51.9405C23.2803 52.543 23.1601 53.0245 22.6778 53.3858C22.5576 53.0245 22.919 52.5421 22.3165 52.3018C20.8712 51.6993 20.2688 50.6154 20.2688 48.9289C20.2688 47.845 19.9074 46.8812 19.7873 45.6763C18.9436 47.3627 18.5823 48.9289 19.1848 50.0129C20.0284 51.338 20.3898 53.1446 22.5577 53.2655L22.6778 53.3858ZM79.7763 47.3627C80.4989 46.7603 80.6199 45.9175 80.6199 45.0738C80.4998 43.1462 81.1014 41.3397 81.2224 39.5321C81.2224 38.9296 81.8249 38.4482 81.2224 37.7255C80.6199 38.207 80.3788 38.9305 80.2586 39.6531C79.415 42.1832 79.5351 44.8326 79.7763 47.3627C79.5351 47.3627 79.1738 47.3626 79.1738 47.7239C79.0536 49.4104 78.6923 51.0969 79.1738 52.7833C79.8964 51.0969 79.7763 49.2903 79.7763 47.3627ZM95.9178 45.315C96.6405 45.4352 97.0018 44.9537 97.243 44.4714C98.6882 41.2187 100.134 38.0869 100.977 34.5931C101.218 33.6293 101.459 32.4253 100.375 31.5816C100.013 33.1479 99.5309 34.4729 99.7721 35.9182C99.7721 36.1594 99.7721 36.5207 99.6519 36.7618C98.6881 38.2071 98.447 40.0145 97.8454 41.5798C97.3639 42.905 96.7614 44.23 95.9178 45.3139C95.0742 46.5189 94.2314 47.6029 93.9902 49.1691C94.954 47.965 96.1589 47.0012 95.9178 45.3148L95.9178 45.315ZM81.1014 53.5059C81.3425 53.1446 81.824 52.6623 81.945 52.301C82.1862 50.4944 83.1499 48.9281 82.9088 47.0005C82.7886 46.0367 83.3903 45.5552 84.2339 45.4342C85.1977 45.3141 85.8002 44.5906 85.3179 44.3503C84.2339 43.8688 84.5952 43.2663 84.8364 42.5437C84.9565 42.0622 84.9565 41.5799 84.7162 41.0984C83.6323 41.3396 83.6323 42.1824 83.6323 43.026C83.5121 43.9898 83.3911 44.9536 82.4273 45.435C82.3072 45.435 82.1862 44.5914 81.8248 45.3148C81.5837 45.6762 81.4635 45.9173 82.066 46.2786C82.5475 46.6399 82.4273 47.1223 81.9458 47.3626C81.1022 47.7239 80.7409 48.3264 81.2232 49.049C81.2232 49.1692 81.8257 48.6877 81.7047 49.2902C81.5845 49.8926 81.4635 50.3741 81.3434 50.9766C81.1014 51.8194 81.1014 52.6631 81.1014 53.5059C80.4989 53.5059 79.8964 53.626 79.5351 54.3494C79.4149 54.7108 79.294 55.1931 79.6553 55.5544C79.8964 55.7956 80.2577 55.7956 80.6191 55.6746C80.9804 55.5544 81.1005 55.1931 80.9804 54.8309C81.1014 54.3495 81.1014 53.8672 81.1014 53.5059ZM84.8354 53.6269C84.8354 53.3858 84.8354 53.1454 84.9556 53.0244C86.2807 51.5792 86.642 49.7718 86.642 47.8451C86.642 47.6039 86.7622 47.2426 86.8832 47.0014C87.6058 44.3513 88.6897 41.7009 87.2445 38.6894C87.3646 40.496 86.8832 41.9421 86.642 43.3874C86.0395 46.1578 85.7984 48.929 84.4741 51.4583C84.233 52.0607 83.9927 52.6632 83.8717 53.2648C83.7515 53.8673 84.3531 53.6261 84.5943 53.6261C84.7144 54.1076 83.8717 54.8311 84.8354 55.0714C85.4379 55.1916 85.7992 54.5899 85.7992 53.9875C85.7992 53.6261 86.1606 53.1438 85.4379 52.9035C85.3178 53.1447 85.0766 53.3858 84.8354 53.6269ZM92.7861 43.1462C92.6659 42.4235 93.3885 41.8211 92.9062 40.7372C92.6651 41.0985 92.5449 41.3396 92.4248 41.5808C92.1836 42.0623 91.8223 42.3034 91.3408 42.0623C90.9795 41.8211 91.0996 41.4598 91.2206 41.0985C91.7021 39.2919 92.1844 37.4844 92.6659 35.678C93.0272 34.594 92.7861 33.7504 91.9433 32.7867C91.0996 36.1596 90.8593 39.5323 89.7754 42.7849C89.7754 42.9051 89.6553 43.1463 89.7754 43.1463C90.7392 44.11 90.2569 45.5553 90.7392 46.6392C90.9804 46.398 91.2207 46.0367 91.4618 45.7956C91.4618 46.1569 91.2207 46.5182 91.582 46.7593C91.8232 46.8795 92.0635 46.7593 92.3046 46.398C93.1474 45.5561 93.87 44.4712 92.7861 43.1462ZM67.2483 35.798C66.5257 35.5569 66.1644 35.9182 65.9232 36.5207C65.5619 37.3643 65.2006 38.2071 64.8393 39.1708C64.3578 38.3272 64.9594 37.4844 64.9594 36.5207C63.1529 38.0869 62.6705 39.8936 63.1529 41.9412C63.273 42.5437 63.6343 42.905 63.5142 43.6276C63.1529 45.7955 63.9957 47.7231 65.0804 49.5304C65.3216 50.0119 65.5619 50.8555 66.4055 50.6144C67.008 50.3732 67.1282 48.928 66.5257 48.3254C66.5257 48.3254 66.0442 48.5666 65.9232 47.9641C65.8031 47.0003 65.6821 46.1575 65.9232 45.1937C66.1644 44.1097 66.4047 43.146 66.6459 42.0619C66.766 41.4595 67.0072 40.7368 66.4047 39.8941C66.1635 41.099 66.0434 41.9418 65.8022 42.9056C65.8022 43.2669 65.6821 43.8694 65.0796 43.8694C64.9594 43.5081 64.7183 43.0258 64.8384 42.9056C65.6821 41.5805 65.3199 39.6529 66.766 38.4487C67.0071 38.3286 67.3685 37.7261 67.0071 37.485C65.8022 36.7615 67.0072 36.28 67.2483 35.7977C67.6096 35.6775 68.0919 36.2792 68.3323 35.4364C68.3323 35.1952 68.5734 34.9549 68.2121 34.9549C67.7306 34.8347 67.4895 35.196 67.2483 35.5574V35.7977L67.2483 35.798ZM19.0639 42.3034C18.8228 40.9783 19.7866 39.7733 18.5824 38.9305C18.7026 37.3642 18.4623 35.6778 19.3051 34.1124C20.0277 32.7873 19.9076 32.7873 19.5462 31.2212C17.1372 35.7989 15.6911 40.4969 16.0533 45.4351C15.4508 45.4351 15.2097 45.315 14.8484 45.315C15.2097 46.5199 15.0895 48.0854 17.0162 48.8079C16.6549 47.1215 17.7389 46.0375 18.1002 44.8327C18.3413 44.2302 18.7027 44.1101 19.3051 44.2302C19.9076 44.2302 20.2689 44.4714 20.2689 45.194C20.2689 45.6755 20.1488 46.1578 20.7504 46.6393C21.594 45.6755 22.3167 44.8327 21.473 43.2664C20.9916 42.3026 21.3529 40.9774 22.0755 39.8935C23.0393 38.4482 23.4006 36.0383 23.0393 34.3518C22.3167 35.3156 22.9192 36.7609 21.7142 37.8448C21.8344 36.3995 21.8344 35.1946 22.0755 33.9896C22.0755 33.7484 23.0393 33.7484 22.3167 33.267C21.9554 33.0258 21.473 33.267 21.3529 33.8694C21.1117 35.676 19.0639 37.1221 20.3891 39.1699C20.6302 39.5313 20.3891 40.1337 20.1479 40.6152C19.6656 40.9782 19.4252 41.5807 19.0639 42.3034ZM69.5371 53.6269C69.6573 53.2656 69.8984 53.0244 69.7783 52.9043C69.2968 51.338 70.6219 49.4113 68.9346 47.9652C68.8145 47.845 68.9346 47.3627 68.9346 47.1215C68.9346 45.6763 68.9346 44.2303 69.2959 42.7849C69.5371 41.701 69.7774 40.7372 69.8984 39.6532C69.8984 39.2918 70.2597 38.6894 69.2959 38.5692C68.5733 38.5692 68.091 38.449 67.9708 39.4128C67.8507 40.8581 67.4893 42.1832 67.2482 43.6294V44.1109C67.6095 44.8335 67.7297 43.0269 67.9708 43.9907C68.091 44.4722 67.8507 44.9545 67.7297 45.436C67.4885 46.8813 67.7297 48.4475 67.1272 49.8928C66.886 50.6155 68.091 51.218 67.8498 51.6994C67.3683 53.3858 68.8136 53.1446 69.5371 53.6269ZM40.1446 40.9783C39.422 42.6647 39.0607 44.5923 38.0969 46.2788C37.9767 46.52 37.8557 46.6401 37.8557 46.8813C37.8557 47.2426 38.0969 47.2426 38.4582 47.3628C38.8195 47.3628 39.0607 47.3628 38.9397 47.0014C38.5784 44.9537 40.5059 44.3513 41.4698 43.1463C41.5899 43.0261 42.0723 43.1463 42.5537 43.2664C42.4336 44.5915 41.8311 45.9165 41.9513 47.3619C42.3126 47.0005 42.5537 46.7594 42.5537 46.5182C43.0352 45.1931 43.6377 43.9881 43.7587 42.663C42.9151 42.4219 42.1924 41.8194 41.3497 41.9404C41.2295 41.9404 40.6271 42.0606 40.5061 42.1816C40.2649 41.7009 40.5059 41.2195 40.1446 40.9783ZM75.0783 46.64C75.1985 46.64 75.4396 46.7601 75.5598 46.7601C76.7647 44.23 77.7277 41.7008 77.7277 38.9306C78.3301 39.1717 77.8478 40.0145 78.4503 40.0145C79.1729 40.0145 78.9318 39.2919 79.0528 38.8096V37.966C79.1729 37.1223 78.5713 37.3635 78.089 37.2433C77.2453 37.1232 76.884 37.8458 76.7639 38.3273C76.1622 41.0985 75.6808 43.8696 75.0783 46.64ZM42.072 33.5099C41.8308 34.5939 41.5905 35.5577 41.4695 36.5215C41.3493 36.8828 41.4695 37.2441 41.951 37.3651C42.4325 37.4852 42.5535 37.0038 42.5535 36.6425C42.4333 35.6787 43.0349 35.6787 43.7584 35.5585C44.4811 35.3173 44.4811 35.9198 44.7222 36.2811C45.2037 37.1248 45.686 38.2087 47.1312 37.6063C45.9271 35.4367 44.6021 34.3527 42.072 33.5099ZM28.4605 30.7387C27.3766 32.3049 25.5693 40.9783 25.9304 43.0259C26.4119 40.7369 27.6168 38.6893 27.3757 36.1592C27.3757 35.5567 27.4959 34.8341 27.9782 34.3526C28.942 33.3888 28.7009 32.1849 28.4605 30.7387ZM72.0674 47.2425C74.2353 42.0631 74.3564 41.2194 73.6337 39.2918C73.0312 42.0622 72.5497 44.7124 72.0674 47.2425ZM86.6436 54.2292C88.4502 54.3494 88.0889 53.0243 88.4502 52.1815C89.1729 50.3749 89.1729 50.3749 89.0527 49.2902C87.9687 50.8556 87.1251 52.4219 86.6436 54.2292ZM91.823 47.6037C90.2568 48.8086 89.6552 50.6152 89.2929 53.0242C91.2205 51.3378 91.3415 49.4101 91.823 47.6037ZM69.5377 47.1213H70.0192C70.2604 45.4349 70.5007 43.6284 70.8629 41.9419C70.8629 41.7008 71.104 41.3395 70.6217 41.2193C70.2604 41.0992 70.0192 41.4605 70.0192 41.7008C69.7781 43.6284 69.1756 45.3148 69.5377 47.1213ZM72.6695 38.2077C71.5856 40.7378 71.1033 43.5082 70.8629 46.3986C71.2243 46.2784 71.4654 46.1574 71.4654 46.1574C71.7057 43.5081 72.3082 40.8578 72.6695 38.2077ZM71.4646 38.0867C72.9098 36.4002 73.151 35.5565 72.7897 33.2686C72.3082 33.0275 72.067 33.5098 71.5847 33.63C71.2234 33.63 70.7411 33.5098 70.5008 34.1114C70.6209 34.8341 71.3444 34.2316 71.4646 34.5929C71.7057 35.0744 72.9098 34.8341 72.1872 35.7979C71.7057 36.2802 71.4646 37.0026 71.4646 38.0867ZM97.0023 33.1484C96.2797 33.992 95.6772 37.9664 95.7973 39.6529C96.641 37.485 97.0023 35.3163 97.0023 33.1484ZM76.0419 48.206C75.0781 49.7723 75.4394 51.0973 75.9217 52.4226C76.0419 52.6637 76.1629 52.7839 76.4032 52.6637C76.6443 52.6637 76.7645 52.4226 76.7645 52.1823C76.8847 50.9765 76.7645 49.6511 76.0419 48.206ZM72.0667 54.9516C71.8255 53.6265 71.344 52.9039 71.223 51.9401C71.1029 51.0965 71.3432 50.1335 70.5004 49.5311C70.6205 50.6151 70.7415 51.8201 70.5004 52.7838C70.0189 54.3492 70.8617 54.5903 72.0667 54.9516ZM77.3671 36.28C77.6083 34.9548 77.9696 33.871 78.6923 33.0273C78.8124 32.7861 78.9334 32.5458 78.9334 32.1837C78.9334 31.8223 78.9334 31.461 78.5721 31.34C78.0906 31.2199 77.6083 31.4602 77.6083 31.9425C77.7285 33.1475 77.1268 34.1104 76.8857 35.1952C76.8848 35.4363 76.8848 35.7976 77.3671 36.28ZM14.1251 46.1573C14.3663 43.5072 14.3663 43.5072 13.5226 42.3021C12.5588 43.9894 12.6798 44.4709 14.1251 46.1573ZM39.6628 37.1228C39.4217 39.1705 38.2176 40.8568 37.495 43.266C39.1814 41.7006 40.0242 39.2915 39.6628 37.1228ZM87.4859 49.1689C88.4497 47.8437 88.9312 46.2776 88.9312 44.3508C87.9682 45.9171 87.4859 47.3624 87.4859 49.1689ZM34.0012 30.8594C33.3987 29.8956 32.7962 30.1368 32.3148 30.0158C31.2308 29.5343 30.9897 30.3771 30.7485 31.0997C30.7485 31.2199 30.7485 31.5812 30.8687 31.7022C31.1098 31.9434 31.4712 31.9434 31.5913 31.5821C31.9535 30.6183 32.7971 30.7384 34.0012 30.8594ZM25.328 28.6907C25.2078 28.6907 25.0868 28.5705 24.9667 28.5705C24.3642 29.7755 23.8827 30.9795 23.2803 32.0635C23.1601 32.4248 23.0391 32.7861 23.5214 32.9071C23.7626 33.0273 24.0029 32.666 24.1239 32.4256C24.6054 31.2207 24.9667 30.0158 25.328 28.6907ZM92.4248 48.8077C94.1112 47.1213 94.8338 45.4348 94.7138 43.7483C93.9911 45.5557 93.2676 47.2421 92.4248 48.8077ZM14.9683 40.3756C15.0885 40.4958 15.2095 40.4958 15.3297 40.6168C15.8111 38.9304 17.0161 37.485 16.4136 35.5574C16.0531 37.1228 15.5708 38.8094 14.9683 40.3756ZM94.9545 33.8712C94.473 35.0761 93.8705 36.2802 94.2318 37.7263C94.9545 36.5214 95.1956 35.1962 94.9545 33.8712ZM47.9747 40.2556C47.131 41.3396 47.131 42.6646 46.8907 43.9897C48.8183 43.146 48.0948 41.5807 47.9747 40.2556ZM42.5541 49.5313C43.5179 48.8087 44.722 48.3264 44.4817 46.64C43.1566 47.1215 42.7953 48.2063 42.5541 49.5313ZM72.9103 52.3017C72.9103 53.747 73.1515 54.9518 73.6329 55.193C73.8741 55.3131 74.1144 55.193 74.1144 54.9518C74.4757 53.8679 73.7531 53.2654 73.1506 52.5428C73.2716 52.4218 73.1506 52.4219 72.9103 52.3017ZM21.1121 27.1253C20.0281 27.2455 18.8231 26.5229 17.8594 27.6068C18.8232 27.1254 20.0281 28.4505 21.1121 27.1253ZM30.3878 53.5063C30.3878 53.0248 30.3878 52.6627 29.9063 52.6627C29.1837 52.7828 28.5812 53.024 28.5812 53.8676C28.5812 54.4701 29.1837 54.3491 29.545 54.3491C30.1466 54.4701 30.3878 54.1088 30.3878 53.5063ZM75.9221 31.9438C75.1994 31.5825 74.7171 32.0639 74.2356 32.1849C73.8743 32.3051 73.6332 32.6664 73.8743 33.0286C74.1155 33.5101 74.4768 33.6311 74.9583 33.3899C75.4398 33.1487 75.801 32.6664 75.9221 31.9438ZM92.7862 29.4137C91.4611 29.8952 91.4611 30.0162 92.545 31.9438C93.0273 30.98 93.0273 30.2574 92.7862 29.4137ZM97.3639 31.3412C97.8454 30.7388 98.2075 30.2573 98.5688 29.896C98.81 29.5347 98.81 29.2935 98.3277 29.0523C97.9664 28.9322 97.7252 28.9322 97.4841 29.2935C97.3639 29.896 97.0026 30.4985 97.3639 31.3412ZM8.22273 32.5462C9.18653 31.4622 9.18653 30.2572 9.42769 28.8121C8.22273 30.0162 7.98241 31.1002 8.22273 32.5462ZM26.6533 29.775C27.3759 29.5338 27.7372 29.0523 28.0985 28.3297C27.4961 27.9684 26.7734 27.9684 25.8096 27.8482C26.1717 28.691 26.413 29.2935 26.6533 29.775ZM93.2682 30.1371H95.4361C95.5562 30.1371 95.6772 29.7758 95.7974 29.6556C95.7974 29.4145 95.6772 29.1742 95.4361 29.1742C94.5933 29.0523 93.8707 28.9322 93.2682 30.1371ZM74.3563 44.9536C74.2361 46.1586 73.9949 47.3626 73.8748 48.4465C74.7176 47.3626 74.7176 46.1576 74.3563 44.9536ZM79.897 32.9075C80.8608 31.7025 81.3423 31.1009 81.3423 30.6185C80.2592 31.3412 80.2592 31.3412 79.897 32.9075ZM23.7622 28.812C24.2437 28.812 24.4848 28.4507 24.4848 27.9684C24.605 27.2458 24.0034 27.2458 23.5211 27.2458C23.1597 27.2458 22.7984 27.2458 22.7984 27.7272C22.7984 28.3297 23.0396 28.812 23.7622 28.812ZM11.9564 43.2671C12.1975 42.5445 12.0765 41.942 11.7152 41.3396C11.5951 41.0984 11.3539 40.9783 10.9926 41.0984C10.7514 41.2186 10.6313 41.5799 10.7514 41.8211C10.9934 42.3034 11.2337 42.7848 11.9564 43.2671ZM40.9875 36.1602C41.1077 35.5577 41.3488 34.9552 41.469 34.4738C41.5891 34.1124 41.2278 33.9923 40.9875 33.9923C40.7463 33.9923 40.385 34.1124 40.385 34.4738C40.2649 34.9552 40.6262 35.5577 40.9875 36.1602ZM29.6639 30.8597C30.0253 30.3782 30.2664 29.8959 30.6277 29.4144C30.0253 29.1732 29.5438 28.8119 28.58 29.1732C29.5438 29.5345 29.1825 30.3774 29.6639 30.8597ZM69.0547 37.2441C70.2597 36.4005 70.2596 36.4005 69.6572 35.3165C69.0547 35.798 68.9345 36.5215 69.0547 37.2441ZM75.0778 52.9042C75.4391 53.5067 75.1979 54.4705 76.2827 54.4705L76.4029 54.3503C76.4029 53.5059 75.9214 53.1446 75.0778 52.9042ZM80.8597 56.156H77.8481C78.8119 56.3972 79.7757 56.6384 80.8597 56.156ZM89.0514 31.8229C89.1716 31.9431 89.2926 31.9431 89.2926 32.0641C89.4128 31.9439 89.5338 31.7028 89.6539 31.5826C89.8951 31.1011 90.2564 30.6188 90.0152 30.0163C90.0152 29.8962 89.7741 29.7752 89.6539 29.8962C88.9313 30.1373 89.4128 30.86 89.0514 31.3415C89.1716 31.3406 89.1716 31.5818 89.0514 31.8229ZM84.1123 31.8229C84.5938 31.3414 84.835 30.8591 84.4736 30.1365C84.4736 30.0163 84.1123 30.0163 84.1123 30.1365C83.5098 30.7381 83.6308 31.2205 84.1123 31.8229ZM12.7994 28.8114C11.5944 29.4139 11.5944 30.1365 11.5944 31.3415C12.1969 30.618 12.6792 30.0156 12.7994 28.8114ZM85.6783 31.4615C86.0396 31.3414 86.2808 31.1002 86.1598 30.6179C86.1598 30.2566 85.9186 30.0154 85.6783 30.0154C85.1968 30.0154 85.0758 30.2566 85.0758 30.7381C85.0758 31.0994 85.317 31.3405 85.6783 31.4615ZM35.8074 35.4361C36.4099 35.7974 36.7712 35.7974 36.7712 34.9546C36.7712 34.5933 36.7712 34.4731 36.2898 34.5933C35.9285 34.7135 35.2058 34.3521 35.0848 35.0748C35.0848 35.7974 35.4461 35.4361 35.8074 35.4361ZM89.0512 40.6164C89.0512 40.8575 89.1714 40.8575 89.2924 40.7365L89.4125 40.6164C89.7739 40.1349 89.7739 39.5324 89.6537 38.6888C89.2924 39.4114 88.9302 39.8937 89.0512 40.6164ZM85.7986 34.5933C85.4372 35.3159 85.3171 36.0386 85.5574 37.2435C86.2809 36.1595 86.1599 35.3159 85.7986 34.5933ZM72.4274 53.5053V52.1801C72.4274 51.8188 72.4274 51.3365 71.9459 51.4575C71.5846 51.5777 71.4644 51.939 71.5846 52.3011C71.8249 52.6625 71.9459 52.9036 72.4274 53.5053ZM39.0597 33.5094C39.5412 33.3892 39.6622 32.9069 39.6622 32.5456C39.6622 32.3044 39.421 31.8229 39.1807 31.9431C38.8194 32.0633 38.6992 32.6657 38.6992 33.0271C38.5782 33.2682 38.8194 33.3884 39.0597 33.5094ZM16.8949 27.4863C16.8949 27.125 16.6537 27.0048 16.4134 27.0048C16.0521 27.0048 15.8109 27.125 15.9319 27.4863C15.9319 27.7275 16.0521 27.9678 16.2932 27.8476C16.6537 27.9678 16.7747 27.7266 16.8949 27.4863ZM15.0883 27.4863C14.1245 27.2452 13.522 27.125 12.7993 27.9678C13.6421 27.6065 14.3656 28.088 15.0883 27.4863ZM11.5945 28.4501C11.5945 28.209 11.5945 27.9686 11.2332 28.0888C10.8718 28.209 10.6307 28.5703 10.7517 28.9324C10.7517 29.0526 10.7517 29.4139 10.9928 29.2938C11.4743 29.1728 11.5945 28.9316 11.5945 28.4501ZM21.3525 29.1728C21.3525 28.9316 21.1113 28.8114 20.9912 28.8114C20.75 28.8114 20.5097 28.9316 20.5097 29.0526C20.3895 29.4139 20.7508 29.5341 20.9912 29.5341C21.2315 29.5341 21.3525 29.4131 21.3525 29.1728ZM97.7248 35.7975C97.3634 35.9176 97.3634 36.1588 97.3634 36.3999C97.3634 36.5201 97.2433 36.8814 97.6046 36.7613C97.8458 36.6411 98.0861 36.3999 97.9659 36.0386C97.9651 35.9185 97.7248 35.9185 97.7248 35.7975ZM74.9576 37.4847C75.1988 37.3646 75.4391 37.1234 75.3189 36.8823C75.3189 36.6411 75.0778 36.2798 74.8375 36.4008C74.7173 36.4008 74.5963 36.8823 74.5963 37.1234C74.5963 37.2436 74.5963 37.4847 74.9576 37.4847ZM30.1461 34.2321C30.2663 33.9909 30.5074 33.7506 30.6276 33.5094C30.7478 33.3893 30.6276 33.1481 30.5074 33.1481C30.2663 33.2683 30.1461 33.5094 30.026 33.7506C29.905 33.8708 30.1461 34.1111 30.1461 34.2321ZM41.3486 40.1342C41.4687 39.8931 41.5897 39.7729 41.7099 39.6528C41.83 39.4116 42.1914 38.9301 41.7099 38.9301C41.2284 38.9301 41.2284 39.5326 41.3486 40.1342ZM72.0661 49.2897C71.825 49.2897 71.7048 49.4099 71.7048 49.651C71.7048 49.8922 71.7048 50.2535 71.825 50.2535C72.1863 50.3737 72.3064 50.1333 72.4274 49.8922C72.4274 49.5309 72.3073 49.4099 72.0661 49.2897ZM85.5576 40.4963C85.7987 40.8576 85.1962 41.2189 85.7987 41.5802C85.5576 41.3391 86.0399 40.8576 85.5576 40.4963Z" fill="white"/>
</svg>
